<?xml version="1.0" encoding="UTF-8"?><svg id="Calque_1" xmlns="http://www.w3.org/2000/svg" viewBox="0 0 92.45 90.68"><defs><style>.cls-1{fill:#00a8d4;}.cls-2{fill:#0a077b;}.cls-3{stroke:#0a077b;}.cls-3,.cls-4{fill:none;stroke-miterlimit:10;stroke-width:2px;}.cls-4{stroke:#00a8d4;}</style></defs><circle class="cls-2" cx="90.26" cy="49.47" r="2.19"/><path class="cls-2" d="M53.07,26.57c-.74-.82-1.8-2.55-3.32-3.96-2.27-2.11-2.57-2.29-5.03-3.79-1.55-.95-3.23-1.67-4.83-2.54-.25-.14-.57-.6-.51-.81,.99-3.69,2.08-7.33,4.09-10.64,2.36-3.88,9.43-5,12.58-1.31,.72,.84,1.6,1.54,2.33,2.37,1.02,1.15,2.17,1.99,3.77,2.13,.34,.03,.64,.46,.96,.71-.22,.22-.41,.59-.65,.63-3.07,.42-4.69,2.57-5.63,5.12-1.24,3.37-2.09,6.87-3.12,10.32-.16,.54-.39,1.07-.65,1.78Z"/><path class="cls-2" d="M72.65,23.09c2.18,0,3.24,1.15,3.43,3.18,.17,1.76-1.96,3.66-3.83,3.62-1.8-.04-3.54-1.63-3.53-3.3,.02-1.94,1.78-3.5,3.92-3.5Z"/><path class="cls-2" d="M45.4,57.32c-.01-.53,.38-1.2,.79-1.59,.78-.75,1.43-1.55,1.97-2.43,.04-.1,.09-.2,.13-.3,.4-.87,.77-1.8,1.12-2.81,.03-.13,.06-.26,.09-.39l-.02,.2c1.06-3.17,1.86-7.15,2.53-12.84,.41-3.52-.34-6.28-1.52-8.41-.35-.53-.69-1.08-1.05-1.61-1.22-1.61-2.62-2.75-3.66-3.52l.16,.07c-3.84-2.84-8.07-5.01-12.71-6.38-6.89-2.03-13.75-4.18-20.03-7.72C9.26,7.39,5.55,4.81,4.09,0c-.24,.31-.4,.49-.52,.7C2.01,3.46,.86,6.4,.4,9.52,.07,11.79-.17,14.18,.15,16.44c.67,4.76,2.97,8.63,7.04,11.46,3.99,2.77,8.48,4.47,12.82,6.5,2.05,.96,4.21,1.68,6.32,2.51-3.66-.03-7.05-1.12-10.36-2.41-3.25-1.26-6.4-2.8-9.68-4.25,.4,3.63,3.02,7.43,6.46,9.87,3.48,2.47,7.45,3.85,11.38,5.35,3.72,1.42,7.48,2.78,11.07,4.5,4.56,2.19,6.07,5.75,4.61,9.87-.73,2.04-2.29,4.28-3.5,4.95,1.1-2.34,2.42-4.55,1.89-7.26-.5-2.59-1.55-4.76-4.1-6.15-.09,.42-.17,.61-.18,.81-.14,2.04-.89,3.76-2.42,5.16-3.16,2.89-6.96,4.66-10.8,6.39-1.8,.81-3.61,1.58-5.7,2.49,4.29,2.39,8.26,4.61,12.43,6.93-1.39,.9-2.36,1.74-1.48,3.43,2.39,4.59,5.27,8.81,9.14,12.28,.89,.8,2.11,1.22,3.18,1.81l.28-.36c-.18-.41-.42-.81-.53-1.24-.4-1.59-1.12-3.2-1.08-4.78,.12-4.42,1.44-8.53,3.73-12.38,2.66-4.48,4.84-9.17,4.71-14.59Z"/><circle class="cls-2" cx="75.34" cy="6.41" r="2.95"/><circle class="cls-2" cx="87.73" cy="10.7" r="2.19"/><circle class="cls-2" cx="86.72" cy="39.02" r="2.87"/><circle class="cls-2" cx="74.24" cy="52.67" r="3.03"/><circle class="cls-1" cx="59.75" cy="56.04" r="3.54"/><circle class="cls-2" cx="51.66" cy="32.56" r="2.61"/><circle class="cls-1" cx="73.74" cy="70.37" r="3.2"/><circle class="cls-2" cx="46.77" cy="85.87" r="2.42"/><circle class="cls-2" cx="65.54" cy="63.23" r="2.42"/><circle class="cls-2" cx="49.13" cy="63.62" r="2.93"/><circle class="cls-2" cx="69.86" cy="43.91" r="2.93"/><circle class="cls-1" cx="58.74" cy="74.41" r="3.54"/><circle class="cls-2" cx="50.65" cy="44.07" r="3.54"/><circle class="cls-1" cx="62.78" cy="17.78" r="3.54"/><circle class="cls-1" cx="80.4" cy="18.04" r="3.12"/><circle class="cls-1" cx="85.62" cy="26.29" r="2.44"/><circle class="cls-1" cx="82.5" cy="32.95" r="1.85"/><circle class="cls-1" cx="74.58" cy="35.31" r="2.7"/><circle class="cls-1" cx="62.62" cy="35.98" r="3.54"/><circle class="cls-1" cx="85.12" cy="55.22" r="2.5"/><line class="cls-4" x1="74.58" y1="35.31" x2="85.12" y2="55.22"/><polyline class="cls-4" points="62.78 17.78 80.4 18.04 85.62 26.29 82.5 32.95 74.58 35.31 62.62 35.98"/><polyline class="cls-3" points="69.86 43.91 50.65 44.07 46.77 85.87"/><line class="cls-3" x1="65.54" y1="63.23" x2="49.13" y2="63.23"/></svg>